<svg xmlns="http://www.w3.org/2000/svg" viewBox="0 0 544.29 539.55"><title>text-uppercase stack 2</title><g id="Layer_1" data-name="Layer 1"><path d="M74.21,28.83v12c0,3.22-1.38,4.44-4.6,4.44H34.5V65.16H67.15c3.22,0,4.6,1.08,4.6,4.3v12c0,3.22-1.38,4.44-4.6,4.44H34.5v38.33c0,3.22-1.08,4.6-4.3,4.6H13.65c-3.22,0-4.45-1.38-4.45-4.6V29.13c0-3.22,1.23-4.6,4.45-4.6h56C72.83,24.53,74.21,25.61,74.21,28.83Z" fill="#b9529f"/><path d="M92.45,128.79c-3.22,0-4.44-1.38-4.44-4.6V29.13c0-3.22,1.22-4.6,4.44-4.6h52.44c3.22,0,4.6,1.08,4.6,4.3v12c0,3.22-1.38,4.44-4.6,4.44H113.3V65.16h29.14c3.22,0,4.6,1.08,4.6,4.3V80.65c0,3.22-1.38,4.45-4.6,4.45H113.3v23h33.12c3.22,0,4.6,1.08,4.6,4.3v12c0,3.22-1.38,4.44-4.6,4.44Z" fill="#b9529f"/><path d="M263.1,124.19c0,3.22-1.07,4.6-4.29,4.6H243c-3.22,0-4.45-1.38-4.45-4.6V75.59c-.15.46-3.07,11.19-4.91,16.1l-6.74,16.71c-1.23,3.07-2.92,4.6-6,4.6H207.6c-3.07,0-4.6-1.84-5.83-4.6l-8.43-19.47a117.48,117.48,0,0,1-4-12.88v48.14c0,3.22-1.07,4.6-4.29,4.6H170c-3.22,0-4.45-1.38-4.45-4.6V29.13c0-3.22,1.23-4.6,4.45-4.6h15a3.84,3.84,0,0,1,4,2.46L209.9,73.9C212,79.12,214,85.4,214.34,86a96.87,96.87,0,0,1,4.45-11.81l20.09-47.53c.61-1.53,1.84-2.15,4.14-2.15h15.79c3.22,0,4.29,1.38,4.29,4.6Z" fill="#b9529f"/><path d="M329.65,29.13l27.75,95.06c.92,2.92-.16,4.6-3.38,4.6H337c-3.21,0-4.59-1.68-5.36-4.6l-4-14.72H302.2l-4,14.72c-.76,2.92-2.14,4.6-5.36,4.6H277.36c-3.22,0-4.29-1.68-3.37-4.6l27.75-95.06c.92-3.06,2.45-4.6,5.67-4.6H324C327.19,24.53,328.73,26.07,329.65,29.13ZM320,81.26c-2.46-9.35-4.6-30.66-4.76-32-.3,2.15-2.76,23.15-5.21,32l-2.3,8.28h14.41Z" fill="#3a54a4"/><path d="M393.58,108.09h30.05c3.22,0,4.6,1.08,4.6,4.3v12c0,3.22-1.38,4.44-4.6,4.44H372.12c-2.76,0-3.84-1.53-3.84-4.6V29.13c0-3.22,1.23-4.6,4.45-4.6h16.56c3.22,0,4.29,1.38,4.29,4.6Z" fill="#3a54a4"/><path d="M445,128.79c-3.22,0-4.45-1.38-4.45-4.6V29.13c0-3.22,1.23-4.6,4.45-4.6h52.43c3.22,0,4.6,1.08,4.6,4.3v12c0,3.22-1.38,4.44-4.6,4.44H465.8V65.16h29.13c3.22,0,4.6,1.08,4.6,4.3V80.65c0,3.22-1.38,4.45-4.6,4.45H465.8v23h33.11c3.22,0,4.6,1.08,4.6,4.3v12c0,3.22-1.38,4.44-4.6,4.44Z" fill="#3a54a4"/><path d="M83.1,287.79C83.1,301,74.21,314,45.38,314S7.67,301,7.67,287.79V233.52c0-13.19,8.89-26.22,37.71-26.22s37.72,13,37.72,26.22v7c0,3.22-1.07,4.6-4.29,4.6H63c-3.22,0-4.44-1.38-4.44-4.6V238c0-7.05-5.37-10-12.88-10S33,230.91,33,238v45.39c0,7,5.22,10,12.73,10s12.88-2.91,12.88-10v-4.91c0-3.22,1.22-4.6,4.44-4.6h15.8c3.22,0,4.29,1.38,4.29,4.6Z" fill="#b9529f"/><path d="M96.13,233.52c0-13.19,10.28-26.22,39.1-26.22s39.25,13,39.25,26.22v54.27c0,13.19-10.43,26.22-39.25,26.22s-39.1-13-39.1-26.22ZM149.18,238c0-7.05-6.44-10-14-10s-13.8,2.91-13.8,10v45.39c0,7,6.29,10,13.8,10s14-2.91,14-10Z" fill="#b9529f"/><path d="M195.18,312.78c-2.76,0-3.83-1.53-3.83-4.6V213.12c0-3.22,1.22-4.6,4.44-4.6h34.65c28.83,0,39.25,13,39.25,26.22v51.82c0,13.19-10.42,26.22-39.25,26.22Zm21.47-83.56v62.86h13.79c7.52,0,14-2.91,14-10V239.19c0-7.05-6.44-10-14-10Z" fill="#3a54a4"/><path d="M291,312.78c-3.22,0-4.45-1.38-4.45-4.6V213.12c0-3.22,1.23-4.6,4.45-4.6h52.43c3.22,0,4.6,1.08,4.6,4.3v12c0,3.22-1.38,4.44-4.6,4.44H311.86v19.93H341c3.22,0,4.6,1.08,4.6,4.3v11.19c0,3.22-1.38,4.45-4.6,4.45H311.86v23H345c3.22,0,4.6,1.08,4.6,4.3v12c0,3.22-1.38,4.44-4.6,4.44Z" fill="#3a54a4"/><path d="M424.7,270.47l15,37.71c1.07,2.76-.92,4.6-4.29,4.6H418.88c-2.92,0-3.53-2.45-4.45-4.6L400.94,274.3h-11.5v33.88c0,3.22-1.07,4.6-4.29,4.6H368.59c-3.22,0-4.45-1.38-4.45-4.6V213.12c0-3.22,1.23-4.6,4.45-4.6h33.12c28.82,0,38.94,13,38.94,26.22v13.34C440.65,256.82,436.2,265.56,424.7,270.47Zm-35.26-41.25V253.6h12.27c7.51,0,14-2.91,14-10v-4.45c0-7.05-6.44-10-14-10Z" fill="#3a54a4"/><path d="M504.28,236.89c0-7-4.91-9.66-12-9.66s-12.11,2.61-12.11,9.66v1.53a7,7,0,0,0,4.9,6.6l25.76,8.73c11.35,3.84,19.17,11.81,19.17,23.16v10.88C530,301,520.68,314,491.86,314s-38.48-13-38.48-26.22V277.52c0-3.22,1.22-4.6,4.44-4.6h15.95c3.22,0,4.29,1.38,4.29,4.6v6.9c0,7.05,6,9.66,13.49,9.66s13.65-2.61,13.65-9.66v-3.07c0-5.52-7.36-8.12-13.19-10.27l-22.07-8.28c-7.82-2.91-14.26-11.5-14.26-20.39v-8.89c0-13.19,8-26.22,36.33-26.22s37,13,37,26.22v5.67c0,3.22-1.22,4.6-4.44,4.6H508.57c-3.22,0-4.29-1.38-4.29-4.6Z" fill="#3a54a4"/><path d="M34.5,476.07H64.55c3.22,0,4.6,1.08,4.6,4.3v12c0,3.22-1.38,4.44-4.6,4.44H13c-2.76,0-3.83-1.53-3.83-4.6V397.11c0-3.21,1.23-4.59,4.45-4.59H30.2c3.22,0,4.3,1.38,4.3,4.59Z" fill="#b9529f"/><path d="M129.56,397.11l27.75,95.06c.92,2.92-.16,4.6-3.38,4.6h-17c-3.22,0-4.6-1.68-5.37-4.6l-4-14.72H102.11l-4,14.72c-.77,2.92-2.15,4.6-5.37,4.6H77.27c-3.22,0-4.29-1.68-3.37-4.6l27.75-95.06c.92-3.06,2.46-4.59,5.68-4.59h16.55C127.1,392.52,128.64,394.05,129.56,397.11Zm-9.66,52.13c-2.46-9.35-4.6-30.66-4.76-32-.3,2.15-2.76,23.15-5.21,32l-2.3,8.28H122Z" fill="#b9529f"/><path d="M172.64,496.77c-3.22,0-4.44-1.38-4.44-4.6V397.11c0-3.21,1.22-4.59,4.44-4.59h28.83c28.82,0,38.94,10.73,38.94,23.91v8.44c0,7.36-3.53,13-10.43,17,9.51,3.84,15.49,10.28,15.49,18.4v11.35c0,13.18-10.12,25.14-38.94,25.14Zm20.85-84.32v22.07h8c7.51,0,13.95-2.91,13.95-10.11v-4c0-7.05-6.44-8-13.95-8Zm0,40.78v23.61h13c7.51,0,13.95-2.76,13.95-9.81v-4.91c0-5.82-6.44-8.89-13.95-8.89Z" fill="#b9529f"/></g></svg>