<svg xmlns="http://www.w3.org/2000/svg" viewBox="0 0 1350.32 171.57"><g data-name="Layer 1"><path d="M74.21,28.83v12c0,3.22-1.38,4.44-4.6,4.44H34.5V65.16H67.15c3.22,0,4.6,1.08,4.6,4.3v12c0,3.22-1.38,4.44-4.6,4.44H34.5v38.33c0,3.22-1.08,4.6-4.3,4.6H13.65c-3.22,0-4.45-1.38-4.45-4.6V29.13c0-3.22,1.23-4.6,4.45-4.6h56C72.83,24.53,74.21,25.61,74.21,28.83Z" fill="#b9529f"/><path d="M92.45,128.79c-3.22,0-4.44-1.38-4.44-4.6V29.13c0-3.22,1.22-4.6,4.44-4.6h52.44c3.22,0,4.6,1.08,4.6,4.3v12c0,3.22-1.38,4.44-4.6,4.44H113.3V65.16h29.14c3.22,0,4.6,1.08,4.6,4.3V80.65c0,3.22-1.38,4.45-4.6,4.45H113.3v23h33.12c3.22,0,4.6,1.08,4.6,4.3v12c0,3.22-1.38,4.44-4.6,4.44Z" fill="#b9529f"/><path d="M263.1,124.19c0,3.22-1.07,4.6-4.29,4.6H243c-3.22,0-4.45-1.38-4.45-4.6V75.59c-.15.46-3.07,11.19-4.91,16.1l-6.74,16.71c-1.23,3.07-2.92,4.6-6,4.6H207.6c-3.07,0-4.6-1.84-5.83-4.6l-8.43-19.47a117.48,117.48,0,0,1-4-12.88v48.14c0,3.22-1.07,4.6-4.29,4.6H170c-3.22,0-4.45-1.38-4.45-4.6V29.13c0-3.22,1.23-4.6,4.45-4.6h15a3.84,3.84,0,0,1,4,2.46L209.9,73.9C212,79.12,214,85.4,214.34,86a96.87,96.87,0,0,1,4.45-11.81l20.09-47.53c.61-1.53,1.84-2.15,4.14-2.15h15.79c3.22,0,4.29,1.38,4.29,4.6Z" fill="#b9529f"/><path d="M329.65,29.13l27.75,95.06c.92,2.92-.16,4.6-3.38,4.6H337c-3.21,0-4.59-1.68-5.36-4.6l-4-14.72H302.2l-4,14.72c-.76,2.92-2.14,4.6-5.36,4.6H277.36c-3.22,0-4.29-1.68-3.37-4.6l27.75-95.06c.92-3.06,2.45-4.6,5.67-4.6H324C327.19,24.53,328.73,26.07,329.65,29.13ZM320,81.26c-2.46-9.35-4.6-30.66-4.76-32-.3,2.15-2.76,23.15-5.21,32l-2.3,8.28h14.41Z" fill="#3a54a4"/><path d="M393.58,108.09h30.05c3.22,0,4.6,1.08,4.6,4.3v12c0,3.22-1.38,4.44-4.6,4.44H372.12c-2.76,0-3.84-1.53-3.84-4.6V29.13c0-3.22,1.23-4.6,4.45-4.6h16.56c3.22,0,4.29,1.38,4.29,4.6Z" fill="#3a54a4"/><path d="M445,128.79c-3.22,0-4.45-1.38-4.45-4.6V29.13c0-3.22,1.23-4.6,4.45-4.6h52.43c3.22,0,4.6,1.08,4.6,4.3v12c0,3.22-1.38,4.44-4.6,4.44H465.8V65.16h29.13c3.22,0,4.6,1.08,4.6,4.3V80.65c0,3.22-1.38,4.45-4.6,4.45H465.8v23h33.11c3.22,0,4.6,1.08,4.6,4.3v12c0,3.22-1.38,4.44-4.6,4.44Z" fill="#3a54a4"/><path d="M619.58,103.8c0,13.19-8.89,26.22-37.72,26.22s-37.71-13-37.71-26.22V49.53c0-13.19,8.89-26.22,37.71-26.22s37.72,13,37.72,26.22v7c0,3.22-1.07,4.6-4.29,4.6h-15.8c-3.22,0-4.44-1.38-4.44-4.6V54c0-7-5.37-10-12.88-10s-12.73,2.91-12.73,10V99.35c0,7.06,5.22,10,12.73,10s12.88-2.91,12.88-10v-4.9c0-3.22,1.22-4.6,4.44-4.6h15.8c3.22,0,4.29,1.38,4.29,4.6Z" fill="#b9529f"/><path d="M632.61,49.53c0-13.19,10.28-26.22,39.1-26.22S711,36.34,711,49.53V103.8C711,117,700.53,130,671.71,130s-39.1-13-39.1-26.22Zm53,4.44c0-7-6.44-10-13.95-10s-13.8,2.91-13.8,10V99.35c0,7.06,6.29,10,13.8,10s13.95-2.91,13.95-10Z" fill="#b9529f"/><path d="M731.66,128.79c-2.76,0-3.83-1.53-3.83-4.6V29.13c0-3.22,1.22-4.6,4.44-4.6h34.65c28.83,0,39.25,13,39.25,26.22v51.82c0,13.19-10.42,26.22-39.25,26.22Zm21.46-83.56v62.86h13.8c7.52,0,14-2.91,14-10V55.2c0-7.05-6.44-10-14-10Z" fill="#3a54a4"/><path d="M827.49,128.79c-3.22,0-4.45-1.38-4.45-4.6V29.13c0-3.22,1.23-4.6,4.45-4.6h52.43c3.22,0,4.6,1.08,4.6,4.3v12c0,3.22-1.38,4.44-4.6,4.44H848.34V65.16h29.13c3.22,0,4.6,1.08,4.6,4.3V80.65c0,3.22-1.38,4.45-4.6,4.45H848.34v23h33.12c3.21,0,4.59,1.08,4.59,4.3v12c0,3.22-1.38,4.44-4.59,4.44Z" fill="#3a54a4"/><path d="M961.18,86.48l15,37.71c1.07,2.76-.92,4.6-4.29,4.6H955.36c-2.92,0-3.53-2.45-4.45-4.6L937.42,90.31h-11.5v33.88c0,3.22-1.07,4.6-4.29,4.6H905.07c-3.22,0-4.45-1.38-4.45-4.6V29.13c0-3.22,1.23-4.6,4.45-4.6h33.12c28.82,0,38.94,13,38.94,26.22V64.09C977.13,72.83,972.68,81.57,961.18,86.48ZM925.92,45.23V69.61h12.27c7.51,0,13.95-2.91,13.95-10V55.2c0-7.05-6.44-10-13.95-10Z" fill="#3a54a4"/><path d="M1040.76,52.9c0-7-4.91-9.66-12-9.66s-12.11,2.61-12.11,9.66v1.53a7,7,0,0,0,4.9,6.59l25.76,8.74c11.35,3.84,19.17,11.81,19.17,23.16V103.8c0,13.19-9.36,26.22-38.18,26.22s-38.48-13-38.48-26.22V93.53c0-3.22,1.22-4.6,4.44-4.6h16c3.22,0,4.29,1.38,4.29,4.6v6.9c0,7,6,9.66,13.49,9.66s13.65-2.61,13.65-9.66V97.36c0-5.52-7.36-8.12-13.19-10.27l-22.07-8.28c-7.82-2.91-14.26-11.5-14.26-20.39V49.53c0-13.19,8-26.22,36.33-26.22s37,13,37,26.22V55.2c0,3.22-1.22,4.6-4.44,4.6h-16c-3.22,0-4.29-1.38-4.29-4.6Z" fill="#3a54a4"/><path d="M1134,108.09h30c3.22,0,4.6,1.08,4.6,4.3v12c0,3.22-1.38,4.44-4.6,4.44h-51.52c-2.76,0-3.83-1.53-3.83-4.6V29.13c0-3.22,1.23-4.6,4.45-4.6h16.56c3.22,0,4.29,1.38,4.29,4.6Z" fill="#b9529f"/><path d="M1229,29.13l27.75,95.06c.92,2.92-.15,4.6-3.37,4.6h-17c-3.22,0-4.6-1.68-5.37-4.6l-4-14.72h-25.46l-4,14.72c-.77,2.92-2.15,4.6-5.37,4.6h-15.48c-3.22,0-4.3-1.68-3.38-4.6l27.75-95.06c.92-3.06,2.46-4.6,5.68-4.6h16.56C1226.59,24.53,1228.12,26.07,1229,29.13Zm-9.66,52.13c-2.45-9.35-4.6-30.66-4.75-32-.31,2.15-2.76,23.15-5.22,32l-2.3,8.28h14.42Z" fill="#b9529f"/><path d="M1272.12,128.79c-3.22,0-4.44-1.38-4.44-4.6V29.13c0-3.22,1.22-4.6,4.44-4.6H1301c28.82,0,38.94,10.74,38.94,23.92v8.44c0,7.35-3.52,13-10.42,17C1339,77.74,1345,84.18,1345,92.3v11.35c0,13.18-10.12,25.14-38.94,25.14ZM1293,44.47V66.54h8c7.51,0,14-2.91,14-10.11v-4c0-7-6.44-8-14-8Zm0,40.78v23.61h13c7.51,0,14-2.76,14-9.81V94.14c0-5.82-6.44-8.89-14-8.89Z" fill="#b9529f"/></g></svg>